<svg version="1" xmlns="http://www.w3.org/2000/svg" width="666.667" height="666.667" viewBox="0 0 500.000000 500.000000"><path d="M64.2 249.7l.3 42.8 86.3.3 86.2.2v-86H64l.2 42.7zm40.8-3.2V271h-5c-4.7 0-5-.2-5-2.6v-2.5l-2.2 2.6c-3.3 3.6-10 4.4-16 1.7-6.4-2.8-9.2-8.6-8.6-18.2.4-7.7 2.1-10.9 7.9-14.8 2.9-2 4.4-2.3 9.6-2 4.8.3 6.6.9 7.8 2.3 1.3 1.8 1.4 1.2 1.5-6.8V222h10v24.5zm84.8-23.3c.7.7 1.2 2.4 1.2 3.8 0 3.3-1.7 5-5 5s-5-1.7-5-5 1.7-5 5-5c1.4 0 3.1.5 3.8 1.2zm41.2 23.3V271h-5c-4.7 0-5-.2-5-2.6v-2.5l-2.2 2.6c-3.3 3.6-10 4.4-16 1.7-6.4-2.8-9.2-8.6-8.6-18.2.4-7.7 2.1-10.9 7.9-14.8 2.9-2 4.4-2.3 9.6-2 4.8.3 6.6.9 7.8 2.3 1.3 1.8 1.4 1.2 1.5-6.8V222h10v24.5zM132 229c-2.5 2.2-5.5 4-6.7 4-2.8 0-2.8-.4-.2-4.6 1.9-3.1 2.5-3.4 6.7-3.4l4.7.1-4.5 3.9zm5.1 9.8c2.8 3.1 2.9 3.5 2.9 14 0 5.9.3 12.4.6 14.4l.7 3.8h-5.2c-4.4 0-5.1-.3-5.1-2 0-2.5-1.2-2.6-2.7-.1-2.7 4.2-14.6 3.4-17.8-1.2-1.7-2.5-2-8.9-.5-11.8 1.5-2.8 7.7-5.5 14.3-6.3 5.1-.7 5.7-1 5.7-3 0-1.3-.6-2.9-1.4-3.5-2.3-1.9-7-.9-8.1 1.6-.8 1.9-1.8 2.3-5.7 2.3-5.4 0-6.2-1.6-3.2-5.9 3.3-4.7 7.3-6.2 15.3-5.9 6.8.3 7.5.6 10.2 3.6zm19.4 10.2c2.1 7.2 4.2 12.7 4.5 12.3.4-.4 2.2-6 4-12.3 1.8-6.3 3.6-11.9 4-12.3.4-.5 3-.7 5.8-.5l5 .3-6.7 17-6.6 17h-11.7l-6.4-16.3c-3.5-9-6.4-16.8-6.4-17.3s2.4-.9 5.3-.9h5.4l3.8 13zm34.5 4.5V271h-10v-35h10v17.5z"/><path d="M81.2 244.3c-4.3 4.6-3.7 15.8 1.1 19.2 3.3 2.3 6.6 1.8 9.9-1.5 2.9-2.9 3-3.4 2.6-9.7-.3-5.4-.8-6.9-2.7-8.4-3.2-2.6-8.2-2.4-10.9.4zM207.2 244.3c-4.3 4.6-3.7 15.8 1.1 19.2 3.3 2.3 6.6 1.8 9.9-1.5 2.9-2.9 3-3.4 2.6-9.7-.3-5.4-.8-6.9-2.7-8.4-3.2-2.6-8.2-2.4-10.9.4zM122.7 256.2c-3.5 1.3-4.8 5.5-2.2 7.5 4.2 3 9.5-.2 9.5-5.7 0-2.5-.4-3-2.2-2.9-1.3 0-3.5.5-5.1 1.1zM241 247.9c0 25.4 0 25.4 6.4 26.7 5.4 1 7.6-.2 7.6-4.1 0-2.4-.5-3.4-2-3.8-1.9-.5-2-1.4-2-21.1V225h-10v22.9zM364.6 226.6c-3.4 3.3-1.1 8.4 3.7 8.4 4 0 5.7-1.5 5.7-5 0-1.4-.5-3.1-1.2-3.8-1.7-1.7-6.4-1.5-8.2.4zM272.3 231.5c-2.9 4.4-2.9 4.5.3 4.5 1.7 0 4.2-1.4 7-4l4.4-4h-4.8c-4.3 0-4.9.3-6.9 3.5zM268.6 238.1c-8.7 2-13.6 8.8-13.6 18.6 0 12.6 8.7 19.8 21.5 17.8 5.3-.7 12.5-6.8 12.5-10.3 0-2-.5-2.2-4.9-2.2-4 0-5 .3-5.4 2-1.4 5.3-11.1 4.2-12.5-1.3l-.8-3.2 12.3-.3 12.3-.3v-4.7c0-7.4-5.1-14.4-11.5-15.7-1.6-.4-3.7-.8-4.5-1-.8-.1-3.2.1-5.4.6zm8.8 9.1c2.9 4.1 2.1 4.8-4.9 4.8-7.2 0-8.3-1.2-4.5-5 2.7-2.7 7.5-2.6 9.4.2zM340 238c-6.3 1.2-10.3 4.3-11.5 9.2-.7 2.8-.7 2.8 4.3 2.8 4.2 0 5.2-.3 5.7-2 .7-2.4 5.1-3.7 7.4-2.3.9.6 1.7 2.2 1.9 3.7.3 2.2 0 2.6-2.2 2.6-5.6 0-12.7 2.2-15.6 5-2.4 2.2-3 3.6-3 7 0 5.2 1.3 7.6 5 9.5 5.3 2.7 12.6 1.6 15.7-2.4 1.1-1.4 1.2-1.3 1.3.6 0 2.1.5 2.3 5 2.3h5l-.1-12.8c0-7.1-.5-14.2-1.2-16.2-1.9-5.5-9.5-8.5-17.7-7zm8 22.9c0 3.3-1.2 5.2-3.7 6.2-3.2 1.2-6.3-.5-6.3-3.4 0-3.3 1.9-4.7 6.2-4.7 3.1 0 3.8.4 3.8 1.9zM289.4 239.7c.3 1 3.5 9 6.9 17.8l6.4 16 5.9.3 5.9.3 6.8-17.3c3.7-9.5 6.7-17.7 6.7-18.1 0-.4-2.5-.7-5.5-.7h-5.4l-3.1 10.2c-5.9 19.6-4.8 19-9.1 4.5-2.1-7-4.1-13.2-4.4-13.7-.3-.6-3.1-1-6.1-1-4.8 0-5.5.2-5 1.7zM363.7 238.7c-.4.3-.7 8.4-.7 18V274h11v-36h-4.8c-2.7 0-5.2.3-5.5.7zM378.7 264.8c-2.3 2.5-2.1 5.8.3 8.2 3.9 3.9 10 1.4 10-4.3 0-5.2-6.8-7.8-10.3-3.9z"/></svg>